<svg xmlns="http://www.w3.org/2000/svg" width="39" height="39" viewBox="0 0 39 39" fill="none">
            <path d="M19.5 39C8.73044 39 0 30.2695 0 19.5C0 8.73044 8.73044 0 19.5 0C30.2695 0 39 8.73044 39 19.5C39 30.2695 30.2695 39 19.5 39ZM19.5 35.1C28.1157 35.1 35.1 28.1157 35.1 19.5C35.1 10.8844 28.1157 3.9 19.5 3.9C10.8844 3.9 3.9 10.8844 3.9 19.5C3.9 28.1157 10.8844 35.1 19.5 35.1ZM19.5 11.7C20.577 11.7 21.45 12.5731 21.45 13.65C21.45 14.7269 20.577 15.6 19.5 15.6C18.423 15.6 17.55 14.7269 17.55 13.65C17.55 12.5731 18.423 11.7 19.5 11.7ZM19.5 19.5C22.731 19.5 25.35 16.881 25.35 13.65C25.35 10.4191 22.731 7.8 19.5 7.8C16.269 7.8 13.65 10.4191 13.65 13.65C13.65 16.881 16.269 19.5 19.5 19.5ZM19.5 25.35C17.346 25.35 15.6 27.096 15.6 29.25H11.7C11.7 24.9423 15.1922 21.45 19.5 21.45C23.8077 21.45 27.3 24.9423 27.3 29.25H23.4C23.4 27.096 21.654 25.35 19.5 25.35Z" fill="black"/>
        </svg>